<?xml version="1.0" encoding="UTF-8"?><svg width="25" height="25" xmlns="http://www.w3.org/2000/svg" viewBox="0 0 25 25"><path d="M10.866 5.447c-.59 0-1.134.091-1.632.318-.499.227-.952.498-1.316.908-.362.362-.68.77-.907 1.314a3.83 3.83 0 00-.317 1.587c0 .228.091.409.227.591.136.135.362.226.635.226.227 0 .408-.09.59-.226.136-.182.226-.363.226-.59 0-.68.227-1.315.725-1.769.499-.5 1.089-.726 1.77-.726.227 0 .407-.091.59-.226a.862.862 0 00.225-.591.865.865 0 00-.226-.59.866.866 0 00-.59-.226m.278 13.896c-4.481 0-8.127-3.658-8.127-8.157 0-4.5 3.646-8.158 8.127-8.158 4.482 0 8.128 3.658 8.128 8.158 0 4.499-3.646 8.157-8.128 8.157m13.394 3.074L20.02 17.92a11.14 11.14 0 002.267-6.733C22.288 5.018 17.289 0 11.144 0 5 0 0 5.018 0 11.186s5 11.185 11.144 11.185c2.538 0 4.875-.866 6.75-2.307l4.512 4.494a1.504 1.504 0 002.133 0 1.517 1.517 0 00-.001-2.14" fill="#F30501" fill-rule="evenodd"/></svg>